<svg width="46" height="34" viewBox="0 0 46 34" fill="none" xmlns="http://www.w3.org/2000/svg">
<path d="M36.8889 26.2729C37.3461 21.2231 38.5217 14.8289 34.603 10.7629C31.37 7.451 25.5899 6.63123 21.2466 7.22146C17.3605 7.77891 13.801 9.41845 11.6784 12.8287C9.1965 16.7636 8.54338 21.7478 9.32713 26.2729C9.32713 26.2729 9.32713 26.4115 9.32713 26.9375C9.32713 27.3425 9.22916 27.2239 9.49041 27.2239H36.9228L36.8889 26.955V26.2729Z" fill="#052529" fill-opacity="0.8"/>
<path d="M37.6732 26.7036C38.1616 21.3022 39.4173 14.4628 35.2314 10.1136C31.778 6.57114 25.6038 5.69429 20.9644 6.32562C16.8134 6.92188 13.0112 8.67557 10.7438 12.3233C8.0927 16.5321 7.39505 21.8634 8.23223 26.7036C8.02293 26.7737 1.52319 26.8018 1.52319 27.3644C1.52319 27.7976 8.12758 27.7207 8.40664 27.7207H37.6732C37.9523 27.7207 44.4768 27.9239 44.4768 27.4144C44.4768 26.6486 37.9871 26.7036 37.6732 26.7036ZM11.3717 13.4456C13.4995 9.51735 17.232 7.72858 21.5225 7.20247C25.8131 6.71143 31.9176 7.72858 34.7431 11.4113C38.022 15.7254 36.9407 21.688 36.4174 26.7036H9.41824C9.45312 26.6334 9.45312 26.5633 9.45312 26.4581C8.6857 22.1089 9.24383 17.3739 11.3717 13.4456Z" fill="white"/>
<path d="M23.6504 23.058C25.3247 22.8826 26.6852 21.655 26.441 19.9013C26.3712 19.4454 25.7085 19.6558 25.7782 20.0767C26.0224 21.7603 24.2186 22.5135 22.8481 22.3565C21.5923 22.1812 20.6505 21.3745 20.197 20.1819C20.0226 19.7611 19.3598 19.9364 19.5342 20.3573C20.197 22.111 21.7667 23.2684 23.6504 23.058Z" fill="white"/>
<path d="M23.6504 23.058C25.3247 22.8826 26.6852 21.655 26.441 19.9013C26.3712 19.4454 25.7085 19.6558 25.7782 20.0767C26.0224 21.7603 24.2186 22.5135 22.8481 22.3565C21.5923 22.1812 20.6505 21.3745 20.197 20.1819C20.0226 19.7611 19.3598 19.9364 19.5342 20.3573C20.197 22.111 21.7667 23.2684 23.6504 23.058Z" fill="white"/>
<path d="M15.3294 18.3424C16.7455 18.6067 17.896 17.3736 17.6305 15.9644C17.2765 14.291 15.1524 13.9387 14.0019 14.9956C13.6479 15.2598 13.6479 15.7002 13.8249 15.9644C13.5594 17.0213 14.1789 18.1663 15.3294 18.3424Z" fill="white"/>
<ellipse cx="15.2318" cy="15.6216" rx="0.609272" ry="0.612613" fill="black" fill-opacity="0.8"/>
<path d="M29.952 18.3424C31.3681 18.6067 32.5186 17.3736 32.2531 15.9644C31.8991 14.291 29.775 13.9387 28.6245 14.9956C28.2704 15.2598 28.2704 15.7002 28.4474 15.9644C28.1819 17.0213 28.8015 18.1663 29.952 18.3424Z" fill="white"/>
<ellipse cx="29.8543" cy="15.6216" rx="0.609272" ry="0.612613" fill="black" fill-opacity="0.8"/>
</svg>
