<svg width="42" height="42" viewBox="0 0 42 42" fill="none" xmlns="http://www.w3.org/2000/svg">
<g clip-path="url(#clip0_11_26)">
<path d="M34.5806 29.4541C35.0276 24.5779 36.1771 18.4036 32.3454 14.4773C29.1842 11.2793 23.5324 10.4877 19.2856 11.0577C15.4858 11.596 12.0053 13.1791 9.92976 16.4721C7.503 20.2717 6.86438 25.0846 7.63072 29.4541C7.63072 29.4541 7.63072 29.5879 7.63072 30.0958C7.63072 30.4869 7.53493 30.3723 7.79038 30.3723H34.6137L34.5806 30.1127V29.4541Z" fill="#BEFFC4" fill-opacity="0.3"/>
<path d="M35.3474 29.8699C35.8249 24.6543 37.0528 18.05 32.9598 13.8504C29.5831 10.4297 23.546 9.58301 19.0096 10.1926C14.9507 10.7684 11.2329 12.4618 9.01587 15.9841C6.42365 20.0482 5.74149 25.1962 6.56008 29.8699C6.35544 29.9377 0 29.9648 0 30.508C0 30.9263 6.45776 30.8521 6.73063 30.8521H35.3474C35.6203 30.8521 42 31.0483 42 30.5563C42 29.8169 35.6544 29.8699 35.3474 29.8699ZM9.62982 17.0678C11.7104 13.2746 15.36 11.5474 19.5553 11.0393C23.7506 10.5652 29.7196 11.5474 32.4823 15.1035C35.6885 19.2693 34.6311 25.0268 34.1195 29.8699H7.71976C7.75387 29.8022 7.75387 29.7345 7.75387 29.6329C7.00349 25.4332 7.54922 20.8611 9.62982 17.0678Z" fill="black" fill-opacity="0.9"/>
<path d="M21.6359 26.3497C23.2731 26.1804 24.6033 24.995 24.3645 23.3016C24.2963 22.8613 23.6482 23.0645 23.7165 23.4709C23.9552 25.0966 22.1914 25.8239 20.8514 25.6724C19.6235 25.503 18.7026 24.724 18.2591 23.5725C18.0886 23.1661 17.4406 23.3355 17.6111 23.7419C18.2591 25.4353 19.794 26.5529 21.6359 26.3497Z" fill="black" fill-opacity="0.9"/>
<path d="M21.6359 26.3497C23.2731 26.1804 24.6033 24.995 24.3645 23.3016C24.2963 22.8613 23.6482 23.0645 23.7165 23.4709C23.9552 25.0966 22.1914 25.8239 20.8514 25.6724C19.6235 25.503 18.7026 24.724 18.2591 23.5725C18.0886 23.1661 17.4406 23.3355 17.6111 23.7419C18.2591 25.4353 19.794 26.5529 21.6359 26.3497Z" fill="black" fill-opacity="0.9"/>
<path d="M13.4996 21.7963C14.8843 22.0514 16.0093 20.8608 15.7496 19.5C15.4035 17.8842 13.3266 17.544 12.2016 18.5645C11.8554 18.8197 11.8554 19.2449 12.0285 19.5C11.7689 20.5206 12.3746 21.6262 13.4996 21.7963Z" fill="black" fill-opacity="0.9"/>
<ellipse cx="13.4042" cy="19.169" rx="0.595745" ry="0.591549" fill="white"/>
<path d="M27.7975 21.7963C29.1821 22.0514 30.3071 20.8608 30.0475 19.5C29.7013 17.8842 27.6244 17.544 26.4994 18.5645C26.1533 18.8197 26.1533 19.2449 26.3263 19.5C26.0667 20.5206 26.6725 21.6262 27.7975 21.7963Z" fill="black" fill-opacity="0.9"/>
<ellipse cx="27.7021" cy="19.169" rx="0.595745" ry="0.591549" fill="white"/>
</g>
<defs>
<clipPath id="clip0_11_26">
<rect width="42" height="21" fill="white" transform="translate(0 10)"/>
</clipPath>
</defs>
</svg>
