<svg width="42" height="42" viewBox="0 0 42 42" fill="none" xmlns="http://www.w3.org/2000/svg">
<path d="M33.6812 28.9547C34.0986 24.3505 35.172 18.5205 31.594 14.8132C28.6422 11.7936 23.3647 11.0461 19.3991 11.5843C15.8509 12.0925 12.6009 13.5874 10.6629 16.6967C8.39682 20.2845 7.80049 24.8289 8.51609 28.9547C8.51609 28.9547 8.51609 29.0811 8.51609 29.5607C8.51609 29.9299 8.42664 29.8218 8.66517 29.8218H33.7121L33.6812 29.5766V28.9547Z" fill="#052529" fill-opacity="0.8"/>
<path d="M34.3973 29.3474C34.8432 24.4226 35.9897 18.1866 32.1678 14.2212C29.0147 10.9913 23.3774 10.1919 19.1414 10.7675C15.3513 11.3111 11.8798 12.9101 9.80954 16.2359C7.38899 20.0734 6.752 24.9343 7.51639 29.3474C7.32529 29.4113 1.39075 29.4369 1.39075 29.9499C1.39075 30.3448 7.42084 30.2748 7.67564 30.2748H34.3973C34.6521 30.2748 40.6093 30.46 40.6093 29.9955C40.6093 29.2973 34.6839 29.3474 34.3973 29.3474ZM10.3828 17.2593C12.3256 13.6776 15.7335 12.0466 19.651 11.567C23.5685 11.1193 29.1421 12.0466 31.7219 15.4045C34.7158 19.3379 33.7284 24.7744 33.2507 29.3474H8.59927C8.63112 29.2834 8.63112 29.2195 8.63112 29.1235C7.93043 25.1581 8.44002 20.8409 10.3828 17.2593Z" fill="white"/>
<path d="M21.5938 26.0235C23.1225 25.8636 24.3647 24.7443 24.1417 23.1453C24.078 22.7296 23.4729 22.9215 23.5366 23.3052C23.7595 24.8402 22.1126 25.527 20.8612 25.3839C19.7146 25.224 18.8547 24.4885 18.4407 23.4012C18.2814 23.0174 17.6763 23.1773 17.8355 23.5611C18.4407 25.16 19.8739 26.2153 21.5938 26.0235Z" fill="white"/>
<path d="M21.5938 26.0235C23.1225 25.8636 24.3647 24.7443 24.1417 23.1453C24.078 22.7296 23.4729 22.9215 23.5366 23.3052C23.7595 24.8402 22.1126 25.527 20.8612 25.3839C19.7146 25.224 18.8547 24.4885 18.4407 23.4012C18.2814 23.0174 17.6763 23.1773 17.8355 23.5611C18.4407 25.16 19.8739 26.2153 21.5938 26.0235Z" fill="white"/>
<path d="M13.9965 21.724C15.2894 21.9649 16.3399 20.8407 16.0975 19.5558C15.7743 18.0301 13.8349 17.7089 12.7844 18.6725C12.4611 18.9134 12.4611 19.3149 12.6228 19.5558C12.3803 20.5195 12.946 21.5634 13.9965 21.724Z" fill="white"/>
<ellipse cx="13.9072" cy="19.2432" rx="0.556291" ry="0.558559" fill="black" fill-opacity="0.8"/>
<path d="M27.3474 21.724C28.6404 21.9649 29.6909 20.8407 29.4484 19.5558C29.1252 18.0301 27.1858 17.7089 26.1353 18.6725C25.8121 18.9134 25.8121 19.3149 25.9737 19.5558C25.7313 20.5195 26.2969 21.5634 27.3474 21.724Z" fill="white"/>
<ellipse cx="27.2583" cy="19.2432" rx="0.556291" ry="0.558559" fill="black" fill-opacity="0.8"/>
</svg>
